<?xml version="1.0" encoding="UTF-8" standalone="no"?>
<!-- Created with Inkscape (http://www.inkscape.org/) -->

<svg
   width="104.07684mm"
   height="39.522499mm"
   viewBox="0 0 104.07684 39.522499"
   version="1.1"
   id="svg1"
   xml:space="preserve"
   xmlns="http://www.w3.org/2000/svg"
   xmlns:svg="http://www.w3.org/2000/svg"><defs
     id="defs1" /><g
     id="layer1"
     transform="translate(-55.980829,-23.856397)"><path
       id="path25"
       style="opacity:1;fill:#ececec;fill-opacity:1;stroke-width:0.364213"
       d="m 106.74052,23.856397 c -3.59615,0 -4.80139,3.54096 -5.12992,7.13187 l -8.022766,-5.2e-4 v 10.28258 h 8.022766 v 16.27859 c -1e-5,6.12954 10.25933,5.82755 10.25933,5.82755 v -22.10614 l 7.8667,5.1e-4 v -10.28257 h -7.8667 c -0.32849,-3.59077 -1.53325,-7.13187 -5.12941,-7.13187 z m -50.759693,7.13135 11.283549,15.85278 -11.283549,16.53594 h 11.346077 l 6.561874,-8.61704 6.822839,8.61704 H 91.954859 L 80.513696,46.995037 91.954859,30.987747 H 80.711617 l -6.822839,8.28787 -6.561874,-8.28787 z m 65.538643,0 14.04927,32.38872 h 10.6133 l 13.87564,-32.38872 h -11.03653 l -8.14576,20.52433 -8.40104,-20.52433 z" /></g></svg>
